<svg xmlns="http://www.w3.org/2000/svg" aria-label="Glenveagh logo" fill="none" viewBox="0 0 130 49">

    <path fill="currentColor" d="M16.7207 34.614V35.6095C16.7207 39.858 14.0813 44.111 8.56693 44.111C3.68286 44.111 -0.000976562 40.7595 -0.000976562 35.5352C-0.000976562 30.4564 3.47426 26.864 8.59263 26.864C11.3483 26.864 13.4329 27.8792 14.822 29.0822L13.1774 31.1383C12.1329 30.1716 10.5124 29.3686 8.47472 29.3686C4.93298 29.3686 2.63833 32.014 2.63833 35.511C2.63833 39.0564 5.02216 41.608 8.63647 41.608C12.1812 41.608 13.9408 39.1277 14.1237 36.9277H9.03251V34.614H16.7207Z"></path>

    <path fill="currentColor" d="M18.5767 43.7574H20.8456V27.218H18.5767V43.7574Z"></path>
    <path fill="currentColor" d="M25.2219 37.0007H30.9404C30.8482 35.4871 29.7613 34.6113 28.1408 34.6113C26.6095 34.6113 25.5 35.4174 25.2219 37.0007ZM33.3969 38.2977V38.6765H25.1056C25.1963 40.6143 26.5205 41.8901 28.3495 41.8901C30.1076 41.8901 31.1037 40.7098 31.6358 39.978L33.2351 41.5113C32.4461 42.6234 31.0387 44.1098 28.3934 44.1098C24.9877 44.1098 22.814 41.7734 22.814 38.3234C22.814 35.0128 24.8532 32.4871 28.28 32.4871C31.5436 32.4871 33.3969 34.778 33.3969 38.2977Z"></path>
    <path fill="currentColor" d="M45.2094 37.0464V43.7555H42.9405V37.4509C42.9405 35.5828 42.0139 34.8009 40.4826 34.8009C38.8153 34.8009 37.6377 35.8176 37.6377 38.5343V43.7555H35.3657V32.8419H37.6377V34.4949H37.683C38.3754 33.2434 39.5363 32.4873 41.1779 32.4873C43.4741 32.4873 45.2094 33.7388 45.2094 37.0464Z"></path>
    <path fill="currentColor" d="M57.0897 32.8413L52.7831 43.7565H50.6517L46.3647 32.8413H49.0313L51.7174 40.9928L54.4247 32.8413H57.0897Z"></path>
    <path fill="currentColor" d="M59.9629 37.0007H65.6829C65.5892 35.4871 64.5008 34.6113 62.8818 34.6113C61.349 34.6113 60.2395 35.4174 59.9629 37.0007ZM68.1361 38.2977V38.6765H59.8464C59.9371 40.6143 61.2597 41.8901 63.0888 41.8901C64.8468 41.8901 65.8445 40.7098 66.3766 39.978L67.9759 41.5113C67.1883 42.6234 65.778 44.1098 63.1342 44.1098C59.73 44.1098 57.5532 41.7734 57.5532 38.3234C57.5532 35.0128 59.5924 32.4871 63.0208 32.4871C66.2844 32.4871 68.1361 34.778 68.1361 38.2977Z"></path>
    <path fill="currentColor" d="M78.6293 38.2983C78.6293 36.2165 77.3323 34.7544 75.3415 34.7544C73.3507 34.7544 72.0522 36.2165 72.0522 38.2983C72.0522 40.3771 73.3507 41.8438 75.3415 41.8438C77.3323 41.8438 78.6293 40.3771 78.6293 38.2983ZM69.6426 38.2983C69.6426 34.659 72.0294 32.4893 74.8547 32.4893C76.6142 32.4893 77.7963 33.268 78.4659 34.4468H78.5128V32.8408H80.7833V43.7574H78.5128V42.1529H78.4659C77.7963 43.3332 76.6142 44.112 74.8547 44.112C72.0294 44.112 69.6426 41.9408 69.6426 38.2983Z"></path>
    <path fill="currentColor" d="M91.5082 38.2984C91.5082 36.2196 90.2128 34.7545 88.2189 34.7545C86.2266 34.7545 84.9311 36.2196 84.9311 38.2984C84.9311 40.3772 86.2266 41.8454 88.2189 41.8454C90.2128 41.8454 91.5082 40.3772 91.5082 38.2984ZM84.4911 48.3439L84.931 46.0954C86.2733 46.4029 87.6172 46.5939 88.6118 46.5939C90.6525 46.5939 91.3917 45.859 91.3917 43.4499V42.1529H91.3464C90.6737 43.3333 89.4916 44.112 87.7336 44.112C84.9053 44.112 82.5215 41.9408 82.5215 38.2984C82.5215 34.659 84.9053 32.4878 87.7336 32.4878C89.4916 32.4878 90.6737 33.2651 91.3464 34.4469H91.3917V32.8393H93.6607V43.756C93.5473 48.0348 91.3675 48.8408 88.6118 48.8408C87.3406 48.8408 85.8108 48.6029 84.4911 48.3439Z"></path>
    <path fill="currentColor" d="M98.3642 34.4956H98.4095C99.1064 33.2426 100.261 32.485 101.909 32.485C104.179 32.485 105.937 33.7396 105.937 37.0471V43.7547H103.667V37.4502C103.667 35.5805 102.742 34.8002 101.211 34.8002C99.5463 34.8002 98.3642 35.8168 98.3642 38.5365V43.7547H96.0952V27.2153H98.3642V34.4956Z"></path>
    <path fill="currentColor" d="M117.266 0L104.616 12.9061L104.53 12.9955V19.8515L117.263 32.8409L122.866 27.1242V20.2682L116.968 14.2545V21.7121L118.915 23.697L117.263 25.3833L108.479 16.4212L117.266 7.45758L126.05 16.4182L125.111 17.3758L125.108 24.8349L130 19.8455V12.9909L117.266 0ZM117.561 6.90455V1.15L129.288 13.1152L126.467 15.9924L117.561 6.90455ZM105.239 13.1197L116.97 1.15303V6.91212L108.062 15.9985L105.239 13.1197ZM129.41 13.8409V19.597L125.702 23.3803V17.6242L126.739 16.5636V16.5652L129.41 13.8409ZM105.12 19.603V13.8455L107.792 16.5727L116.97 25.9348V31.6909L105.12 19.603ZM117.558 21.4636V15.7061L122.153 20.3939L119.332 23.2727L117.558 21.4636ZM117.561 25.9303L119.58 23.8697L122.275 21.1197V26.8758L117.561 31.6879V25.9303Z"></path>

</svg>